<svg version="1.0" xmlns="http://www.w3.org/2000/svg" width="682.667" height="682.667" viewBox="0 0 512 512"><path d="M25.5 17.4c-9.4 4.1-12.4 16.8-5.8 24.7C24.2 47.4 27 48 47.3 48h18.3l13.8 131.2C87 251.4 93.6 312.5 94.1 315c2.7 12.2 12.3 24.7 23.5 30.7 12.5 6.6 4.5 6.3 147.9 6.3 143.1 0 135.5.3 147.6-6.1 3.2-1.7 8.3-5.7 11.3-8.8 10.2-10.8 9.4-8 31.6-111.3 11.4-53.1 20-95.6 20-98.6 0-11.3-7.3-22.7-17.8-27.9l-5.7-2.8-174.7-.3-174.7-.2-.5-3.3c-.3-1.7-1.9-16.7-3.6-33.2-1.7-16.5-3.4-30.9-3.7-32-1-3.6-5.5-8.7-8.9-10.1-4.7-2-56.4-2-60.9 0zm418.1 113.3c-20.7 98.4-38.8 180.1-40.4 182.2-1 1.4-3.1 3.4-4.6 4.5-2.7 2.1-3.3 2.1-130.4 2.4-70.2.1-129.2 0-131-.3-3.9-.7-9.5-5.4-11.1-9.2-.6-1.6-5.1-41.7-10.1-89.3-4.9-47.6-9.2-88-9.5-89.8l-.6-3.2h338.3l-.6 2.7zM148.1 385.6c-25.3 6.8-41 33.1-34.6 57.9 6.7 25.6 32.9 41.5 58 35 25.6-6.7 41.5-32.9 35-57.8-6.7-25.9-33.3-41.9-58.4-35.1zm18.2 31.8c10.3 4.3 12.8 17.7 4.8 25.7-6.5 6.5-15.7 6.5-22.2 0-12.4-12.3 1.3-32.5 17.4-25.7zm173.8-31.8c-25.3 6.8-41 33.1-34.6 57.9 6.7 25.6 32.9 41.5 58 35 25.6-6.7 41.5-32.9 35-57.8-6.7-25.9-33.3-41.9-58.4-35.1zm18.2 31.8c10.3 4.3 12.8 17.7 4.8 25.7-6.5 6.5-15.7 6.5-22.2 0-12.4-12.3 1.3-32.5 17.4-25.7z"/></svg>